<svg id="Layer_1" data-name="Layer 1" xmlns="http://www.w3.org/2000/svg" xmlns:xlink="http://www.w3.org/1999/xlink" viewBox="0 0 1608.55 978.38"><defs><style>.cls-1,.cls-11,.cls-5,.cls-9{fill:none;}.cls-2{clip-path:url(#clip-path);}.cls-3{font-size:680.97px;fill:#085366;font-family:Comfortaa-Bold, Comfortaa;font-weight:700;}.cls-4{fill:#00b4c0;}.cls-11,.cls-5,.cls-9{stroke:#0d5366;stroke-miterlimit:10;}.cls-5{stroke-width:8px;}.cls-6{fill:#f6e6c0;}.cls-7{fill:#8acdd4;}.cls-8{fill:#105366;}.cls-9{stroke-width:1.04px;}.cls-10{fill:#0d5366;}</style><clipPath id="clip-path" transform="translate(-157.51 -185.8)"><rect class="cls-1" x="154" y="183" width="1612.06" height="981.18"/></clipPath></defs><title>name_logo_jan23</title><g id="Artwork_14" data-name="Artwork 14"><g class="cls-2"><g class="cls-2"><text class="cls-3" transform="translate(391.73 790.43)">elix</text><path class="cls-4" d="M1328.6,498.85a46.39,46.39,0,1,1-46.39-46.38,46.39,46.39,0,0,1,46.39,46.38" transform="translate(-157.51 -185.8)"/><path class="cls-5" d="M185.36,214V425.33s-12.65,142.08,169,179c145.32,29.53,143.29,186,143.29,186V945.79" transform="translate(-157.51 -185.8)"/><path class="cls-4" d="M533,511.22a40.31,40.31,0,1,1-40.31-40.3A40.3,40.3,0,0,1,533,511.22" transform="translate(-157.51 -185.8)"/><path class="cls-6" d="M538.18,226.1a40.31,40.31,0,1,1-40.31-40.3,40.3,40.3,0,0,1,40.31,40.3" transform="translate(-157.51 -185.8)"/><path class="cls-7" d="M538.18,368.66a40.31,40.31,0,1,1-40.31-40.3,40.3,40.3,0,0,1,40.31,40.3" transform="translate(-157.51 -185.8)"/><path class="cls-8" d="M185.17,972.93h0a27.14,27.14,0,1,1,27.14-27.14,27.22,27.22,0,0,1-27.14,27.14" transform="translate(-157.51 -185.8)"/><path class="cls-9" d="M185.17,972.93h0a27.14,27.14,0,1,1,27.14-27.14A27.22,27.22,0,0,1,185.17,972.93Z" transform="translate(-157.51 -185.8)"/><path class="cls-10" d="M497.61,972.93h0a27.14,27.14,0,1,1,27.14-27.14,27.22,27.22,0,0,1-27.14,27.14" transform="translate(-157.51 -185.8)"/><path class="cls-11" d="M497.61,972.93h0a27.14,27.14,0,1,1,27.14-27.14A27.22,27.22,0,0,1,497.61,972.93Z" transform="translate(-157.51 -185.8)"/><path class="cls-10" d="M185.17,241.15h0A27.14,27.14,0,1,1,212.31,214a27.22,27.22,0,0,1-27.14,27.14" transform="translate(-157.51 -185.8)"/><path class="cls-11" d="M185.17,241.15h0A27.14,27.14,0,1,1,212.31,214,27.22,27.22,0,0,1,185.17,241.15Z" transform="translate(-157.51 -185.8)"/><path class="cls-8" d="M232.41,611.92s-26.22,17.53-49.31,66.95C171,704.67,161.51,740,158,780.87V945.79h54.28V790.92a206,206,0,0,1,2.57-29.06,230.51,230.51,0,0,1,6.78-31.53c4.13-13.83,9.68-29.12,18.44-43.41,10.81-17.62,26.6-35.47,47-47.69Z" transform="translate(-157.51 -185.8)"/><path class="cls-11" d="M232.41,611.92s-26.22,17.53-49.31,66.95C171,704.67,161.51,740,158,780.87V945.79h54.28V790.92a206,206,0,0,1,2.57-29.06,230.51,230.51,0,0,1,6.78-31.53c4.13-13.83,9.68-29.12,18.44-43.41,10.81-17.62,26.6-35.47,47-47.69Z" transform="translate(-157.51 -185.8)"/></g></g></g></svg>